<?xml version="1.0" standalone="no"?>
<!DOCTYPE svg PUBLIC "-//W3C//DTD SVG 20010904//EN"
 "http://www.w3.org/TR/2001/REC-SVG-20010904/DTD/svg10.dtd">
<svg version="1.0" xmlns="http://www.w3.org/2000/svg"
 width="145.000000pt" height="130.000000pt" viewBox="0 0 145.000000 130.000000"
 preserveAspectRatio="xMidYMid meet">
<metadata>
Created by potrace 1.16, written by Peter Selinger 2001-2019
</metadata>
<g transform="translate(0.000000,130.000000) scale(0.100000,-0.100000)"
fill="#000000" stroke="none">
<path d="M762 993 c42 -82 65 -147 82 -235 15 -81 24 -108 36 -108 52 0 247
75 295 114 l20 16 -20 16 c-22 17 -77 13 -144 -11 -21 -7 -55 -15 -76 -17
l-37 -3 -23 63 c-26 71 -66 134 -101 157 -25 16 -38 19 -32 8z"/>
<path d="M320 762 l-23 -18 28 -22 c29 -23 121 -55 193 -67 l42 -7 0 51 0 50
-37 6 c-21 4 -54 11 -73 16 -55 14 -106 11 -130 -9z"/>
<path d="M1186 745 c-10 -8 -15 -19 -10 -26 4 -8 3 -10 -4 -5 -7 4 -33 -2 -58
-14 l-47 -20 19 -23 c19 -22 19 -22 -2 -4 -11 9 -23 17 -27 17 -3 0 -8 -8 -10
-17 -4 -16 -5 -16 -6 -1 -1 15 -5 15 -33 6 -44 -15 -43 -13 -18 -47 25 -37 37
-39 43 -8 l4 22 2 -22 c0 -13 3 -23 5 -23 14 0 75 32 85 44 7 9 17 13 22 10 5
-3 20 7 34 22 21 22 23 30 13 42 -10 13 -10 14 0 8 8 -5 12 2 12 23 0 35 1 35
-24 16z"/>
<path d="M444 628 c3 -7 7 -26 11 -41 5 -24 8 -27 21 -16 12 10 13 9 9 -4 -11
-28 82 -44 102 -18 12 15 13 15 7 -1 -7 -21 11 -26 113 -27 62 0 86 3 97 15 9
8 16 11 16 5 0 -25 83 -6 102 23 5 7 8 7 8 -2 0 -10 9 -12 33 -7 17 4 35 9 40
12 10 6 -43 68 -57 66 -61 -9 -86 -15 -82 -21 2 -4 -20 -5 -50 -4 -58 4 -60 2
-43 -31 10 -18 7 -17 -14 6 -22 23 -35 27 -89 29 -117 4 -133 6 -161 17 -38
15 -67 14 -63 -1z"/>
<path d="M823 493 c-20 -8 -15 -61 7 -83 41 -41 126 -54 167 -25 45 31 37 120
-10 113 -13 -2 -23 -11 -24 -23 -2 -11 0 -14 3 -7 7 15 34 16 34 1 0 -23 -22
-49 -41 -49 -11 0 -39 18 -63 40 -43 40 -50 43 -73 33z"/>
</g>
</svg>
